<?xml version="1.0" ?><svg height="58px" version="1.1" viewBox="0 0 58 58" width="58px" xmlns="http://www.w3.org/2000/svg" xmlns:xlink="http://www.w3.org/1999/xlink"><title/><desc/><defs/><g fill="none" fill-rule="evenodd" id="Page-1" stroke="none" stroke-width="1"><g fill-rule="nonzero" id="017---Reload"><ellipse cx="29" cy="29" fill="#2C3E50" id="Oval" rx="29" ry="28.875"/><path d="M29,54.875 C14.7258624,54.8062083 3.20367241,43.1910968 3.24953355,28.9168671 C3.29539468,14.6426374 14.8919815,3.1018034 29.1662665,3.12473387 C43.4405514,3.14766433 54.9999997,14.7256966 55,29 C54.9494092,43.3181773 43.3182549,54.8934126 29,54.875 Z M29,5.125 C15.8304243,5.19376862 5.20363798,15.9134441 5.24948467,29.0831195 C5.29533136,42.2527949 15.9964946,52.898223 29.1662298,52.8752983 C42.3359651,52.8523737 53.0000025,42.1697552 53,29 C52.950323,15.7860145 42.2140648,5.10567421 29,5.125 Z" fill="#ECF0F1" id="Shape"/><path d="M29,43 C25.2852984,43.0089632 21.7213767,41.5315366 19.10254,38.897 C18.7120582,38.5065181 18.7120582,37.8734219 19.10254,37.48294 C19.4930219,37.0924582 20.1261181,37.0924582 20.5166,37.48294 C24.377758,41.337196 30.3546214,42.0976892 35.0579486,39.3331742 C39.7612757,36.5686591 42.0042992,30.9766924 40.5150895,25.728256 C39.0258798,20.4798197 34.1802019,16.8992259 28.7258472,17.0168871 C23.2714924,17.1345483 18.5847314,20.9207756 17.32324,26.22855 C17.1954696,26.7644908 16.6582996,27.0961444 16.1219125,26.9702604 C15.5855255,26.8443764 15.251984,26.3083766 15.37598,25.77155 C17.062787,18.6593931 23.9377994,14.0423879 31.1594454,15.1719558 C38.3810914,16.3015237 43.5178995,22.7973482 42.952389,30.0848918 C42.3868784,37.3724354 36.3094521,42.9980396 29,43 Z" fill="#A5A5A4" id="Shape"/><path d="M16,34.11328 C15.3098881,34.1156318 14.6680263,33.7595753 14.30469,33.17285 L11.1084,28.06006 L11.1084,28.05957 C10.7228058,27.4430782 10.7023199,26.665844 11.054903,26.0298957 C11.4074862,25.3939475 12.0775416,24.9995639 12.80469,25 L19.19531,25 C19.9224584,24.9995639 20.5925138,25.3939475 20.945097,26.0298957 C21.2976801,26.665844 21.2771942,27.4430782 20.8916,28.05957 L17.69531,33.17334 C17.3317677,33.7597862 16.6899831,34.1156143 16,34.11328 Z M12.80469,27 L16,32.11279 L19.19629,26.99951 L12.80469,27 Z" fill="#A5A5A4" id="Shape"/></g></g></svg>